<?xml version="1.0" encoding="utf-8"?>
<!-- Generator: Adobe Illustrator 27.8.0, SVG Export Plug-In . SVG Version: 6.00 Build 0)  -->
<svg version="1.1" id="Layer_1" xmlns="http://www.w3.org/2000/svg" xmlns:xlink="http://www.w3.org/1999/xlink" x="0px" y="0px"
	 viewBox="0 0 648 180" style="enable-background:new 0 0 648 180;" xml:space="preserve">
<style type="text/css">
	.st0{fill:#111111;}
	.st1{fill:#EF4E16;}
</style>
<g>
	<g>
		<g>
			<path class="st0" d="M171.28,117.32V46.78h14.82v26.67c2.32-3.03,5.3-5.33,8.95-6.92c3.65-1.58,7.69-2.37,12.14-2.37
				c4.97,0,9.38,1.09,13.23,3.26c3.84,2.17,6.86,5.28,9.05,9.34c2.19,4.05,3.28,8.81,3.28,14.27c0,5.4-1.09,10.19-3.28,14.37
				c-2.19,4.18-5.32,7.47-9.4,9.88c-4.08,2.4-8.87,3.61-14.37,3.61c-8.69,0-15.32-2.93-19.89-8.79v7.21H171.28z M186,92.72
				c0,4.22,1.39,7.77,4.18,10.67c2.72,2.77,6.5,4.15,11.34,4.15c5.17,0,9.12-1.37,11.84-4.1c2.72-2.73,4.08-6.77,4.08-12.1
				c0-5-1.36-8.89-4.08-11.66c-2.72-2.77-6.5-4.15-11.34-4.15c-2.32,0-4.51,0.4-6.56,1.19c-2.06,0.79-3.85,1.94-5.37,3.46
				c-1.33,1.32-2.34,2.83-3.03,4.54c-0.7,1.71-1.04,3.49-1.04,5.33V92.72z"/>
			<path class="st0" d="M237.63,117.32V46.78h14.82v70.53H237.63z"/>
			<path class="st0" d="M319.79,91.33c0,8.43-2.85,15.13-8.55,20.1c-5.7,4.97-13.4,7.46-23.08,7.46c-9.68,0-17.24-2.4-22.68-7.21
				c-5.44-4.81-8.16-11.46-8.16-19.95c0-5.47,1.26-10.27,3.78-14.42c2.52-4.15,6.15-7.37,10.89-9.68
				c4.74-2.31,10.36-3.46,16.86-3.46c9.68,0,17.26,2.39,22.73,7.16C317.05,76.11,319.79,82.77,319.79,91.33z M304.47,91.53
				c0-5.14-1.38-9.1-4.13-11.9c-2.75-2.8-6.68-4.2-11.79-4.2c-5.04,0-8.95,1.42-11.74,4.25c-2.79,2.83-4.18,6.78-4.18,11.85
				c0,5.14,1.38,9.11,4.13,11.9c2.75,2.8,6.65,4.2,11.69,4.2c5.04,0,8.97-1.4,11.79-4.2C303.06,100.64,304.47,96.67,304.47,91.53z"
				/>
			<path class="st0" d="M380.46,98.64c-0.99,6.45-3.95,11.44-8.85,14.97c-4.91,3.52-11.41,5.29-19.5,5.29
				c-9.48,0-16.86-2.35-22.13-7.06c-5.27-4.71-7.91-11.34-7.91-19.91c0-5.47,1.19-10.29,3.58-14.47c2.39-4.18,5.87-7.44,10.44-9.78
				c4.58-2.34,9.98-3.51,16.21-3.51c7.49,0,13.59,1.6,18.3,4.79c4.71,3.2,7.69,7.75,8.95,13.68l-14.92,1.68
				c-0.8-2.9-2.24-5.1-4.33-6.62c-2.09-1.51-4.76-2.27-8.01-2.27c-4.64,0-8.29,1.43-10.94,4.3c-2.65,2.87-3.98,6.8-3.98,11.81
				c0,5.14,1.31,9.11,3.93,11.9c2.62,2.8,6.32,4.2,11.09,4.2c3.58,0,6.5-0.77,8.75-2.32c2.25-1.55,3.68-3.77,4.28-6.67H380.46z"/>
			<path class="st0" d="M428,117.32l-18.7-26.97l-10.05,7.41v19.56h-14.82V46.78h14.82v37.05l24.07-18.08h19.2l-22.28,16.6
				l24.57,34.97H428z"/>
			<path class="st0" d="M445.21,136.48V65.75h14.52v8.1c2.32-3.16,5.32-5.56,9-7.21c3.68-1.64,7.81-2.47,12.38-2.47
				c4.97,0,9.38,1.09,13.23,3.26c3.84,2.17,6.86,5.28,9.05,9.34c2.19,4.05,3.28,8.81,3.28,14.27c0,5.4-1.09,10.19-3.28,14.37
				c-2.19,4.18-5.32,7.47-9.4,9.88c-4.08,2.4-8.87,3.61-14.37,3.61c-8.36,0-14.89-2.8-19.6-8.4v25.98H445.21z M459.93,92.72
				c0,4.22,1.39,7.77,4.18,10.67c2.72,2.77,6.5,4.15,11.34,4.15c5.17,0,9.12-1.37,11.84-4.1c2.72-2.73,4.08-6.77,4.08-12.1
				c0-5-1.36-8.89-4.08-11.66c-2.72-2.77-6.5-4.15-11.34-4.15c-2.32,0-4.51,0.4-6.56,1.19c-2.06,0.79-3.85,1.94-5.37,3.46
				c-1.33,1.32-2.34,2.83-3.03,4.54c-0.7,1.71-1.04,3.49-1.04,5.33V92.72z"/>
			<path class="st0" d="M511.36,58.83V46.19h15.22v12.65H511.36z M511.55,117.32V65.75h14.82v51.57H511.55z"/>
			<path class="st0" d="M533.83,117.32V46.78h14.82v70.53H533.83z"/>
			<path class="st0" d="M567.55,95.09c0.07,2.57,0.78,4.84,2.14,6.82c1.36,1.98,3.25,3.52,5.67,4.64c2.42,1.12,5.22,1.68,8.4,1.68
				c7.76,0,12.57-2.34,14.42-7.01h13.83c-1.39,5.99-4.46,10.44-9.2,13.34c-4.74,2.9-11.26,4.35-19.55,4.35
				c-9.42,0-16.73-2.34-21.93-7.01c-5.21-4.68-7.81-11.23-7.81-19.66c0-5.4,1.21-10.23,3.63-14.47c2.42-4.25,5.9-7.57,10.44-9.98
				c4.54-2.4,9.86-3.61,15.96-3.61c9.28,0,16.46,2.32,21.53,6.96c5.07,4.64,7.61,11.15,7.61,19.51v4.45H567.55z M598.89,86.1
				c-0.13-3.62-1.56-6.44-4.28-8.45c-2.72-2.01-6.5-3.01-11.34-3.01c-4.11,0-7.61,1.09-10.49,3.26c-2.88,2.17-4.49,4.91-4.82,8.2
				H598.89z"/>
		</g>
	</g>
	<g>
		<path class="st1" d="M87,77.71L105.21,90l-18.43,12.08L68.85,89.9L87,77.71L87,77.71z"/>
		<polygon class="st1" points="35.29,90 35.29,90 35.29,90 		"/>
		<g>
			<polygon class="st1" points="35.29,90 35.29,112.52 87,147.44 138.72,112.52 138.72,90 87,124.91 			"/>
			<polygon class="st1" points="87,32.56 36.77,66.48 53.45,77.74 86.93,55.14 138.72,90 138.72,67.48 			"/>
			<polygon class="st1" points="87,77.71 87,77.71 68.85,89.9 86.79,102.08 105.21,90 			"/>
		</g>
	</g>
</g>
</svg>
